<mxfile host="app.diagrams.net" agent="Mozilla/5.0 (Windows NT 10.0; Win64; x64) AppleWebKit/537.36 (KHTML, like Gecko) Chrome/132.0.0.0 Safari/537.36" version="26.0.15">
  <diagram name="Página-1" id="JQGWfBgSjvmWURfwQRNJ">
    <mxGraphModel dx="2021" dy="716" grid="1" gridSize="10" guides="1" tooltips="1" connect="1" arrows="1" fold="1" page="1" pageScale="1" pageWidth="827" pageHeight="1169" math="0" shadow="0">
      <root>
        <mxCell id="0" />
        <mxCell id="1" parent="0" />
        <mxCell id="ULvDlD9Oqm8bPdQTXCZo-31" style="edgeStyle=orthogonalEdgeStyle;rounded=0;orthogonalLoop=1;jettySize=auto;html=1;entryX=0.5;entryY=0;entryDx=0;entryDy=0;endArrow=none;startFill=0;" parent="1" source="ULvDlD9Oqm8bPdQTXCZo-1" target="ULvDlD9Oqm8bPdQTXCZo-25" edge="1">
          <mxGeometry relative="1" as="geometry" />
        </mxCell>
        <mxCell id="ULvDlD9Oqm8bPdQTXCZo-1" value="Boleto" style="rounded=1;arcSize=10;whiteSpace=wrap;html=1;align=center;" parent="1" vertex="1">
          <mxGeometry x="425" y="120" width="100" height="40" as="geometry" />
        </mxCell>
        <mxCell id="ULvDlD9Oqm8bPdQTXCZo-2" value="Evento" style="rounded=1;arcSize=10;whiteSpace=wrap;html=1;align=center;" parent="1" vertex="1">
          <mxGeometry x="445" y="475" width="100" height="40" as="geometry" />
        </mxCell>
        <mxCell id="ULvDlD9Oqm8bPdQTXCZo-27" style="edgeStyle=orthogonalEdgeStyle;rounded=0;orthogonalLoop=1;jettySize=auto;html=1;exitX=0.5;exitY=0;exitDx=0;exitDy=0;entryX=0.5;entryY=1;entryDx=0;entryDy=0;endArrow=none;startFill=0;" parent="1" source="ULvDlD9Oqm8bPdQTXCZo-3" target="ULvDlD9Oqm8bPdQTXCZo-24" edge="1">
          <mxGeometry relative="1" as="geometry" />
        </mxCell>
        <mxCell id="ULvDlD9Oqm8bPdQTXCZo-64" style="edgeStyle=orthogonalEdgeStyle;rounded=0;orthogonalLoop=1;jettySize=auto;html=1;exitX=0.859;exitY=0.005;exitDx=0;exitDy=0;entryX=0;entryY=0.5;entryDx=0;entryDy=0;endArrow=none;startFill=0;exitPerimeter=0;" parent="1" source="ULvDlD9Oqm8bPdQTXCZo-3" target="ULvDlD9Oqm8bPdQTXCZo-62" edge="1">
          <mxGeometry relative="1" as="geometry">
            <Array as="points">
              <mxPoint x="120" y="495" />
              <mxPoint x="120" y="380" />
              <mxPoint x="250" y="380" />
            </Array>
          </mxGeometry>
        </mxCell>
        <mxCell id="ULvDlD9Oqm8bPdQTXCZo-3" value="Persona" style="rounded=1;arcSize=10;whiteSpace=wrap;html=1;align=center;" parent="1" vertex="1">
          <mxGeometry x="20" y="490" width="100" height="40" as="geometry" />
        </mxCell>
        <mxCell id="ULvDlD9Oqm8bPdQTXCZo-29" style="edgeStyle=orthogonalEdgeStyle;rounded=0;orthogonalLoop=1;jettySize=auto;html=1;entryX=0;entryY=0.5;entryDx=0;entryDy=0;endArrow=none;startFill=0;" parent="1" source="ULvDlD9Oqm8bPdQTXCZo-4" target="ULvDlD9Oqm8bPdQTXCZo-26" edge="1">
          <mxGeometry relative="1" as="geometry" />
        </mxCell>
        <mxCell id="ULvDlD9Oqm8bPdQTXCZo-4" value="Transacción" style="whiteSpace=wrap;html=1;align=center;" parent="1" vertex="1">
          <mxGeometry x="50" y="120" width="100" height="40" as="geometry" />
        </mxCell>
        <mxCell id="ULvDlD9Oqm8bPdQTXCZo-39" style="edgeStyle=orthogonalEdgeStyle;rounded=0;orthogonalLoop=1;jettySize=auto;html=1;endArrow=none;startFill=0;" parent="1" source="ULvDlD9Oqm8bPdQTXCZo-5" target="ULvDlD9Oqm8bPdQTXCZo-4" edge="1">
          <mxGeometry relative="1" as="geometry" />
        </mxCell>
        <mxCell id="ULvDlD9Oqm8bPdQTXCZo-5" value="tipo de Adquision" style="ellipse;whiteSpace=wrap;html=1;align=center;" parent="1" vertex="1">
          <mxGeometry x="-90" y="120" width="100" height="40" as="geometry" />
        </mxCell>
        <mxCell id="ULvDlD9Oqm8bPdQTXCZo-35" style="edgeStyle=orthogonalEdgeStyle;rounded=0;orthogonalLoop=1;jettySize=auto;html=1;exitX=1;exitY=0.5;exitDx=0;exitDy=0;entryX=0;entryY=0.5;entryDx=0;entryDy=0;endArrow=none;startFill=0;" parent="1" source="ULvDlD9Oqm8bPdQTXCZo-6" target="ULvDlD9Oqm8bPdQTXCZo-3" edge="1">
          <mxGeometry relative="1" as="geometry" />
        </mxCell>
        <mxCell id="ULvDlD9Oqm8bPdQTXCZo-6" value="Fecha de nacimiento" style="ellipse;whiteSpace=wrap;html=1;align=center;" parent="1" vertex="1">
          <mxGeometry x="-110" y="500" width="100" height="40" as="geometry" />
        </mxCell>
        <mxCell id="ULvDlD9Oqm8bPdQTXCZo-37" style="edgeStyle=orthogonalEdgeStyle;rounded=0;orthogonalLoop=1;jettySize=auto;html=1;exitX=0.5;exitY=0;exitDx=0;exitDy=0;entryX=0.75;entryY=1;entryDx=0;entryDy=0;endArrow=none;startFill=0;" parent="1" source="ULvDlD9Oqm8bPdQTXCZo-7" target="ULvDlD9Oqm8bPdQTXCZo-3" edge="1">
          <mxGeometry relative="1" as="geometry" />
        </mxCell>
        <mxCell id="ULvDlD9Oqm8bPdQTXCZo-7" value="Domicilio" style="ellipse;whiteSpace=wrap;html=1;align=center;" parent="1" vertex="1">
          <mxGeometry x="40" y="580" width="100" height="40" as="geometry" />
        </mxCell>
        <mxCell id="hN9qFNuNnvtqfqO4b8rA-1" style="edgeStyle=orthogonalEdgeStyle;rounded=0;orthogonalLoop=1;jettySize=auto;html=1;endArrow=none;startFill=0;" edge="1" parent="1" source="ULvDlD9Oqm8bPdQTXCZo-8" target="ULvDlD9Oqm8bPdQTXCZo-2">
          <mxGeometry relative="1" as="geometry" />
        </mxCell>
        <mxCell id="ULvDlD9Oqm8bPdQTXCZo-8" value="Estado" style="ellipse;whiteSpace=wrap;html=1;align=center;" parent="1" vertex="1">
          <mxGeometry x="470" y="600" width="100" height="40" as="geometry" />
        </mxCell>
        <mxCell id="ULvDlD9Oqm8bPdQTXCZo-47" style="edgeStyle=orthogonalEdgeStyle;rounded=0;orthogonalLoop=1;jettySize=auto;html=1;exitX=0;exitY=1;exitDx=0;exitDy=0;entryX=1;entryY=0.5;entryDx=0;entryDy=0;endArrow=none;startFill=0;" parent="1" source="ULvDlD9Oqm8bPdQTXCZo-9" target="ULvDlD9Oqm8bPdQTXCZo-2" edge="1">
          <mxGeometry relative="1" as="geometry" />
        </mxCell>
        <mxCell id="ULvDlD9Oqm8bPdQTXCZo-9" value="Descripción" style="ellipse;whiteSpace=wrap;html=1;align=center;" parent="1" vertex="1">
          <mxGeometry x="570" y="415" width="100" height="40" as="geometry" />
        </mxCell>
        <mxCell id="ULvDlD9Oqm8bPdQTXCZo-11" value="Ciudad" style="ellipse;whiteSpace=wrap;html=1;align=center;" parent="1" vertex="1">
          <mxGeometry x="590" y="560" width="100" height="40" as="geometry" />
        </mxCell>
        <mxCell id="ULvDlD9Oqm8bPdQTXCZo-41" style="edgeStyle=orthogonalEdgeStyle;rounded=0;orthogonalLoop=1;jettySize=auto;html=1;exitX=0.5;exitY=1;exitDx=0;exitDy=0;entryX=1;entryY=0.25;entryDx=0;entryDy=0;endArrow=none;startFill=0;" parent="1" source="ULvDlD9Oqm8bPdQTXCZo-12" target="ULvDlD9Oqm8bPdQTXCZo-4" edge="1">
          <mxGeometry relative="1" as="geometry" />
        </mxCell>
        <mxCell id="ULvDlD9Oqm8bPdQTXCZo-12" value="Fecha y hora" style="ellipse;whiteSpace=wrap;html=1;align=center;" parent="1" vertex="1">
          <mxGeometry x="120" y="40" width="100" height="40" as="geometry" />
        </mxCell>
        <mxCell id="ULvDlD9Oqm8bPdQTXCZo-45" style="edgeStyle=orthogonalEdgeStyle;rounded=0;orthogonalLoop=1;jettySize=auto;html=1;entryX=1;entryY=0.5;entryDx=0;entryDy=0;endArrow=none;startFill=0;" parent="1" source="ULvDlD9Oqm8bPdQTXCZo-13" target="ULvDlD9Oqm8bPdQTXCZo-1" edge="1">
          <mxGeometry relative="1" as="geometry">
            <Array as="points">
              <mxPoint x="558" y="80" />
              <mxPoint x="558" y="130" />
              <mxPoint x="525" y="130" />
            </Array>
          </mxGeometry>
        </mxCell>
        <mxCell id="ULvDlD9Oqm8bPdQTXCZo-13" value="Asiento" style="ellipse;whiteSpace=wrap;html=1;align=center;" parent="1" vertex="1">
          <mxGeometry x="590" y="60" width="100" height="40" as="geometry" />
        </mxCell>
        <mxCell id="ULvDlD9Oqm8bPdQTXCZo-14" value="Fila" style="ellipse;whiteSpace=wrap;html=1;align=center;" parent="1" vertex="1">
          <mxGeometry x="490" y="30" width="100" height="40" as="geometry" />
        </mxCell>
        <mxCell id="ULvDlD9Oqm8bPdQTXCZo-42" style="edgeStyle=orthogonalEdgeStyle;rounded=0;orthogonalLoop=1;jettySize=auto;html=1;entryX=0;entryY=0.25;entryDx=0;entryDy=0;endArrow=none;startFill=0;" parent="1" source="ULvDlD9Oqm8bPdQTXCZo-15" target="ULvDlD9Oqm8bPdQTXCZo-1" edge="1">
          <mxGeometry relative="1" as="geometry">
            <Array as="points">
              <mxPoint x="400" y="100" />
              <mxPoint x="400" y="110" />
              <mxPoint x="405" y="110" />
              <mxPoint x="405" y="130" />
            </Array>
          </mxGeometry>
        </mxCell>
        <mxCell id="ULvDlD9Oqm8bPdQTXCZo-15" value="Número de serie" style="ellipse;whiteSpace=wrap;html=1;align=center;" parent="1" vertex="1">
          <mxGeometry x="250" y="60" width="100" height="40" as="geometry" />
        </mxCell>
        <mxCell id="ULvDlD9Oqm8bPdQTXCZo-51" style="edgeStyle=orthogonalEdgeStyle;rounded=0;orthogonalLoop=1;jettySize=auto;html=1;entryX=0;entryY=0.25;entryDx=0;entryDy=0;endArrow=none;startFill=0;" parent="1" source="ULvDlD9Oqm8bPdQTXCZo-16" target="ULvDlD9Oqm8bPdQTXCZo-2" edge="1">
          <mxGeometry relative="1" as="geometry" />
        </mxCell>
        <mxCell id="ULvDlD9Oqm8bPdQTXCZo-16" value="Nombre" style="ellipse;whiteSpace=wrap;html=1;align=center;" parent="1" vertex="1">
          <mxGeometry x="300" y="490" width="100" height="40" as="geometry" />
        </mxCell>
        <mxCell id="ULvDlD9Oqm8bPdQTXCZo-43" value="" style="edgeStyle=orthogonalEdgeStyle;rounded=0;orthogonalLoop=1;jettySize=auto;html=1;endArrow=none;startFill=0;" parent="1" source="ULvDlD9Oqm8bPdQTXCZo-17" target="ULvDlD9Oqm8bPdQTXCZo-1" edge="1">
          <mxGeometry relative="1" as="geometry">
            <Array as="points">
              <mxPoint x="443" y="90" />
              <mxPoint x="450" y="90" />
            </Array>
          </mxGeometry>
        </mxCell>
        <mxCell id="ULvDlD9Oqm8bPdQTXCZo-17" value="Numero interno" style="ellipse;whiteSpace=wrap;html=1;align=center;dashed=1;" parent="1" vertex="1">
          <mxGeometry x="393" y="20" width="100" height="40" as="geometry" />
        </mxCell>
        <mxCell id="ULvDlD9Oqm8bPdQTXCZo-18" value="Fecha y hora" style="ellipse;whiteSpace=wrap;html=1;align=center;" parent="1" vertex="1">
          <mxGeometry x="315" y="570" width="100" height="40" as="geometry" />
        </mxCell>
        <mxCell id="ULvDlD9Oqm8bPdQTXCZo-34" style="edgeStyle=orthogonalEdgeStyle;rounded=0;orthogonalLoop=1;jettySize=auto;html=1;exitX=1;exitY=1;exitDx=0;exitDy=0;endArrow=none;startFill=0;" parent="1" source="ULvDlD9Oqm8bPdQTXCZo-19" edge="1">
          <mxGeometry relative="1" as="geometry">
            <mxPoint x="40" y="490" as="targetPoint" />
          </mxGeometry>
        </mxCell>
        <mxCell id="ULvDlD9Oqm8bPdQTXCZo-19" value="Nombre" style="ellipse;whiteSpace=wrap;html=1;align=center;" parent="1" vertex="1">
          <mxGeometry x="-80" y="440" width="100" height="40" as="geometry" />
        </mxCell>
        <mxCell id="ULvDlD9Oqm8bPdQTXCZo-36" style="edgeStyle=orthogonalEdgeStyle;rounded=0;orthogonalLoop=1;jettySize=auto;html=1;exitX=1;exitY=0;exitDx=0;exitDy=0;endArrow=none;startFill=0;entryX=0.115;entryY=0.9;entryDx=0;entryDy=0;entryPerimeter=0;" parent="1" source="ULvDlD9Oqm8bPdQTXCZo-20" target="ULvDlD9Oqm8bPdQTXCZo-3" edge="1">
          <mxGeometry relative="1" as="geometry">
            <mxPoint x="30" y="540" as="targetPoint" />
          </mxGeometry>
        </mxCell>
        <mxCell id="ULvDlD9Oqm8bPdQTXCZo-20" value="Edad" style="ellipse;whiteSpace=wrap;html=1;align=center;dashed=1;" parent="1" vertex="1">
          <mxGeometry x="-100" y="560" width="80" height="30" as="geometry" />
        </mxCell>
        <mxCell id="ULvDlD9Oqm8bPdQTXCZo-40" style="edgeStyle=orthogonalEdgeStyle;rounded=0;orthogonalLoop=1;jettySize=auto;html=1;entryX=0.25;entryY=0;entryDx=0;entryDy=0;endArrow=none;startFill=0;" parent="1" source="ULvDlD9Oqm8bPdQTXCZo-22" target="ULvDlD9Oqm8bPdQTXCZo-4" edge="1">
          <mxGeometry relative="1" as="geometry" />
        </mxCell>
        <mxCell id="ULvDlD9Oqm8bPdQTXCZo-22" value="Costo" style="ellipse;whiteSpace=wrap;html=1;align=center;" parent="1" vertex="1">
          <mxGeometry x="-50" y="40" width="100" height="40" as="geometry" />
        </mxCell>
        <mxCell id="ULvDlD9Oqm8bPdQTXCZo-38" style="edgeStyle=orthogonalEdgeStyle;rounded=0;orthogonalLoop=1;jettySize=auto;html=1;exitX=0;exitY=0.5;exitDx=0;exitDy=0;endArrow=none;startFill=0;" parent="1" source="ULvDlD9Oqm8bPdQTXCZo-23" target="ULvDlD9Oqm8bPdQTXCZo-3" edge="1">
          <mxGeometry relative="1" as="geometry" />
        </mxCell>
        <mxCell id="ULvDlD9Oqm8bPdQTXCZo-23" value="Correo electrónico" style="ellipse;whiteSpace=wrap;html=1;align=center;" parent="1" vertex="1">
          <mxGeometry x="160" y="495" width="100" height="40" as="geometry" />
        </mxCell>
        <mxCell id="ULvDlD9Oqm8bPdQTXCZo-28" style="edgeStyle=orthogonalEdgeStyle;rounded=0;orthogonalLoop=1;jettySize=auto;html=1;endArrow=none;startFill=0;" parent="1" source="ULvDlD9Oqm8bPdQTXCZo-24" target="ULvDlD9Oqm8bPdQTXCZo-4" edge="1">
          <mxGeometry relative="1" as="geometry" />
        </mxCell>
        <mxCell id="ULvDlD9Oqm8bPdQTXCZo-24" value="Hace" style="shape=rhombus;perimeter=rhombusPerimeter;whiteSpace=wrap;html=1;align=center;" parent="1" vertex="1">
          <mxGeometry x="30" y="290" width="120" height="60" as="geometry" />
        </mxCell>
        <mxCell id="ULvDlD9Oqm8bPdQTXCZo-32" style="edgeStyle=orthogonalEdgeStyle;rounded=0;orthogonalLoop=1;jettySize=auto;html=1;endArrow=none;startFill=0;" parent="1" source="ULvDlD9Oqm8bPdQTXCZo-25" target="ULvDlD9Oqm8bPdQTXCZo-2" edge="1">
          <mxGeometry relative="1" as="geometry" />
        </mxCell>
        <mxCell id="ULvDlD9Oqm8bPdQTXCZo-25" value="Para" style="shape=rhombus;perimeter=rhombusPerimeter;whiteSpace=wrap;html=1;align=center;" parent="1" vertex="1">
          <mxGeometry x="460" y="285" width="120" height="60" as="geometry" />
        </mxCell>
        <mxCell id="ULvDlD9Oqm8bPdQTXCZo-26" value="Compra" style="shape=rhombus;perimeter=rhombusPerimeter;whiteSpace=wrap;html=1;align=center;" parent="1" vertex="1">
          <mxGeometry x="250" y="120" width="120" height="60" as="geometry" />
        </mxCell>
        <mxCell id="ULvDlD9Oqm8bPdQTXCZo-44" style="edgeStyle=orthogonalEdgeStyle;rounded=0;orthogonalLoop=1;jettySize=auto;html=1;entryX=0.882;entryY=0.031;entryDx=0;entryDy=0;entryPerimeter=0;endArrow=none;startFill=0;" parent="1" source="ULvDlD9Oqm8bPdQTXCZo-14" target="ULvDlD9Oqm8bPdQTXCZo-1" edge="1">
          <mxGeometry relative="1" as="geometry">
            <Array as="points">
              <mxPoint x="520" y="95" />
              <mxPoint x="513" y="95" />
            </Array>
          </mxGeometry>
        </mxCell>
        <mxCell id="ULvDlD9Oqm8bPdQTXCZo-50" style="edgeStyle=orthogonalEdgeStyle;rounded=0;orthogonalLoop=1;jettySize=auto;html=1;exitX=1;exitY=0;exitDx=0;exitDy=0;entryX=0.12;entryY=1.031;entryDx=0;entryDy=0;entryPerimeter=0;endArrow=none;startFill=0;" parent="1" source="ULvDlD9Oqm8bPdQTXCZo-18" target="ULvDlD9Oqm8bPdQTXCZo-2" edge="1">
          <mxGeometry relative="1" as="geometry" />
        </mxCell>
        <mxCell id="ULvDlD9Oqm8bPdQTXCZo-52" value="1..n" style="text;html=1;align=center;verticalAlign=middle;whiteSpace=wrap;rounded=0;" parent="1" vertex="1">
          <mxGeometry x="30" y="170" width="60" height="30" as="geometry" />
        </mxCell>
        <mxCell id="ULvDlD9Oqm8bPdQTXCZo-53" value="1..1" style="text;html=1;align=center;verticalAlign=middle;whiteSpace=wrap;rounded=0;" parent="1" vertex="1">
          <mxGeometry x="20" y="415" width="60" height="30" as="geometry" />
        </mxCell>
        <mxCell id="ULvDlD9Oqm8bPdQTXCZo-54" value="&lt;b&gt;&lt;font style=&quot;font-size: 18px;&quot;&gt;1:N&lt;/font&gt;&lt;/b&gt;" style="text;html=1;align=center;verticalAlign=middle;whiteSpace=wrap;rounded=0;" parent="1" vertex="1">
          <mxGeometry x="-20" y="300" width="60" height="30" as="geometry" />
        </mxCell>
        <mxCell id="ULvDlD9Oqm8bPdQTXCZo-56" value="&lt;b&gt;&lt;font style=&quot;font-size: 14px;&quot;&gt;n..1&lt;/font&gt;&lt;/b&gt;" style="text;html=1;align=center;verticalAlign=middle;whiteSpace=wrap;rounded=0;" parent="1" vertex="1">
          <mxGeometry x="150" y="150" width="60" height="30" as="geometry" />
        </mxCell>
        <mxCell id="ULvDlD9Oqm8bPdQTXCZo-57" value="&lt;b&gt;&lt;font style=&quot;font-size: 18px;&quot;&gt;N:1&lt;/font&gt;&lt;/b&gt;" style="text;html=1;align=center;verticalAlign=middle;whiteSpace=wrap;rounded=0;" parent="1" vertex="1">
          <mxGeometry x="290" y="190" width="60" height="30" as="geometry" />
        </mxCell>
        <mxCell id="ULvDlD9Oqm8bPdQTXCZo-59" value="&lt;b&gt;&lt;font style=&quot;font-size: 14px;&quot;&gt;1..1&lt;/font&gt;&lt;/b&gt;" style="text;html=1;align=center;verticalAlign=middle;whiteSpace=wrap;rounded=0;" parent="1" vertex="1">
          <mxGeometry x="393" y="445" width="60" height="30" as="geometry" />
        </mxCell>
        <mxCell id="ULvDlD9Oqm8bPdQTXCZo-60" value="&lt;b&gt;&lt;font style=&quot;font-size: 14px;&quot;&gt;n..1&lt;/font&gt;&lt;/b&gt;" style="text;html=1;align=center;verticalAlign=middle;whiteSpace=wrap;rounded=0;" parent="1" vertex="1">
          <mxGeometry x="475" y="170" width="60" height="30" as="geometry" />
        </mxCell>
        <mxCell id="ULvDlD9Oqm8bPdQTXCZo-61" value="&lt;b&gt;&lt;font style=&quot;font-size: 18px;&quot;&gt;N:1&lt;/font&gt;&lt;/b&gt;" style="text;html=1;align=center;verticalAlign=middle;whiteSpace=wrap;rounded=0;" parent="1" vertex="1">
          <mxGeometry x="570" y="305" width="60" height="30" as="geometry" />
        </mxCell>
        <mxCell id="ULvDlD9Oqm8bPdQTXCZo-65" style="edgeStyle=orthogonalEdgeStyle;rounded=0;orthogonalLoop=1;jettySize=auto;html=1;exitX=1;exitY=0.5;exitDx=0;exitDy=0;endArrow=none;startFill=0;" parent="1" source="ULvDlD9Oqm8bPdQTXCZo-62" target="ULvDlD9Oqm8bPdQTXCZo-1" edge="1">
          <mxGeometry relative="1" as="geometry">
            <Array as="points">
              <mxPoint x="440" y="330" />
            </Array>
          </mxGeometry>
        </mxCell>
        <mxCell id="ULvDlD9Oqm8bPdQTXCZo-62" value="vende" style="shape=rhombus;perimeter=rhombusPerimeter;whiteSpace=wrap;html=1;align=center;" parent="1" vertex="1">
          <mxGeometry x="250" y="310" width="120" height="60" as="geometry" />
        </mxCell>
        <mxCell id="ULvDlD9Oqm8bPdQTXCZo-55" value="&lt;b&gt;&lt;font style=&quot;font-size: 14px;&quot;&gt;1..1&lt;/font&gt;&lt;/b&gt;" style="text;html=1;align=center;verticalAlign=middle;whiteSpace=wrap;rounded=0;" parent="1" vertex="1">
          <mxGeometry x="365" y="150" width="60" height="30" as="geometry" />
        </mxCell>
        <mxCell id="ULvDlD9Oqm8bPdQTXCZo-67" style="edgeStyle=orthogonalEdgeStyle;rounded=0;orthogonalLoop=1;jettySize=auto;html=1;exitX=1;exitY=0.5;exitDx=0;exitDy=0;entryX=0.039;entryY=0.652;entryDx=0;entryDy=0;entryPerimeter=0;endArrow=none;startFill=0;" parent="1" source="ULvDlD9Oqm8bPdQTXCZo-26" target="ULvDlD9Oqm8bPdQTXCZo-1" edge="1">
          <mxGeometry relative="1" as="geometry" />
        </mxCell>
        <mxCell id="ULvDlD9Oqm8bPdQTXCZo-69" value="&lt;b&gt;&lt;font style=&quot;font-size: 18px;&quot;&gt;1:N&lt;/font&gt;&lt;/b&gt;" style="text;html=1;align=center;verticalAlign=middle;whiteSpace=wrap;rounded=0;" parent="1" vertex="1">
          <mxGeometry x="300" y="370" width="60" height="30" as="geometry" />
        </mxCell>
        <mxCell id="ULvDlD9Oqm8bPdQTXCZo-70" value="1..n" style="text;html=1;align=center;verticalAlign=middle;whiteSpace=wrap;rounded=0;" parent="1" vertex="1">
          <mxGeometry x="420" y="160" width="60" height="30" as="geometry" />
        </mxCell>
        <mxCell id="ULvDlD9Oqm8bPdQTXCZo-71" value="&lt;b&gt;&lt;font style=&quot;font-size: 14px;&quot;&gt;1..1&lt;/font&gt;&lt;/b&gt;" style="text;html=1;align=center;verticalAlign=middle;whiteSpace=wrap;rounded=0;" parent="1" vertex="1">
          <mxGeometry x="110" y="465" width="60" height="30" as="geometry" />
        </mxCell>
        <mxCell id="ULvDlD9Oqm8bPdQTXCZo-79" style="edgeStyle=orthogonalEdgeStyle;rounded=0;orthogonalLoop=1;jettySize=auto;html=1;exitX=0.5;exitY=0;exitDx=0;exitDy=0;endArrow=none;startFill=0;" parent="1" source="ULvDlD9Oqm8bPdQTXCZo-75" target="ULvDlD9Oqm8bPdQTXCZo-7" edge="1">
          <mxGeometry relative="1" as="geometry" />
        </mxCell>
        <mxCell id="ULvDlD9Oqm8bPdQTXCZo-75" value="numero" style="ellipse;whiteSpace=wrap;html=1;align=center;" parent="1" vertex="1">
          <mxGeometry x="60" y="680" width="100" height="40" as="geometry" />
        </mxCell>
        <mxCell id="ULvDlD9Oqm8bPdQTXCZo-76" value="colonia" style="ellipse;whiteSpace=wrap;html=1;align=center;" parent="1" vertex="1">
          <mxGeometry x="-50" y="670" width="100" height="40" as="geometry" />
        </mxCell>
        <mxCell id="ULvDlD9Oqm8bPdQTXCZo-80" style="edgeStyle=orthogonalEdgeStyle;rounded=0;orthogonalLoop=1;jettySize=auto;html=1;exitX=0.5;exitY=0;exitDx=0;exitDy=0;entryX=1;entryY=0.5;entryDx=0;entryDy=0;endArrow=none;startFill=0;" parent="1" source="ULvDlD9Oqm8bPdQTXCZo-77" target="ULvDlD9Oqm8bPdQTXCZo-7" edge="1">
          <mxGeometry relative="1" as="geometry" />
        </mxCell>
        <mxCell id="ULvDlD9Oqm8bPdQTXCZo-77" value="calle" style="ellipse;whiteSpace=wrap;html=1;align=center;" parent="1" vertex="1">
          <mxGeometry x="170" y="660" width="100" height="40" as="geometry" />
        </mxCell>
        <mxCell id="ULvDlD9Oqm8bPdQTXCZo-78" style="edgeStyle=orthogonalEdgeStyle;rounded=0;orthogonalLoop=1;jettySize=auto;html=1;exitX=1;exitY=0;exitDx=0;exitDy=0;entryX=0.225;entryY=0.883;entryDx=0;entryDy=0;entryPerimeter=0;endArrow=none;startFill=0;" parent="1" source="ULvDlD9Oqm8bPdQTXCZo-76" target="ULvDlD9Oqm8bPdQTXCZo-7" edge="1">
          <mxGeometry relative="1" as="geometry" />
        </mxCell>
        <mxCell id="ULvDlD9Oqm8bPdQTXCZo-82" style="edgeStyle=orthogonalEdgeStyle;rounded=0;orthogonalLoop=1;jettySize=auto;html=1;exitX=0;exitY=0.5;exitDx=0;exitDy=0;entryX=1;entryY=1;entryDx=0;entryDy=0;endArrow=none;startFill=0;" parent="1" source="ULvDlD9Oqm8bPdQTXCZo-81" target="ULvDlD9Oqm8bPdQTXCZo-3" edge="1">
          <mxGeometry relative="1" as="geometry" />
        </mxCell>
        <mxCell id="ULvDlD9Oqm8bPdQTXCZo-81" value="Saldo" style="ellipse;whiteSpace=wrap;html=1;align=center;" parent="1" vertex="1">
          <mxGeometry x="170" y="550" width="100" height="40" as="geometry" />
        </mxCell>
        <mxCell id="hN9qFNuNnvtqfqO4b8rA-3" style="edgeStyle=orthogonalEdgeStyle;rounded=0;orthogonalLoop=1;jettySize=auto;html=1;endArrow=none;startFill=0;" edge="1" parent="1" source="1qpl8nGFopjfrL8n59NP-11">
          <mxGeometry relative="1" as="geometry">
            <mxPoint x="550" y="510" as="targetPoint" />
          </mxGeometry>
        </mxCell>
        <mxCell id="1qpl8nGFopjfrL8n59NP-11" value="cantidad de asientos" style="ellipse;whiteSpace=wrap;html=1;align=center;" parent="1" vertex="1">
          <mxGeometry x="625" y="495" width="100" height="40" as="geometry" />
        </mxCell>
        <mxCell id="1qpl8nGFopjfrL8n59NP-16" style="edgeStyle=orthogonalEdgeStyle;rounded=0;orthogonalLoop=1;jettySize=auto;html=1;exitX=1;exitY=0.5;exitDx=0;exitDy=0;entryX=0;entryY=0.5;entryDx=0;entryDy=0;endArrow=none;startFill=0;" parent="1" source="1qpl8nGFopjfrL8n59NP-14" edge="1">
          <mxGeometry relative="1" as="geometry">
            <mxPoint x="760" y="550" as="targetPoint" />
          </mxGeometry>
        </mxCell>
        <mxCell id="hN9qFNuNnvtqfqO4b8rA-2" style="edgeStyle=orthogonalEdgeStyle;rounded=0;orthogonalLoop=1;jettySize=auto;html=1;entryX=0.88;entryY=0.925;entryDx=0;entryDy=0;entryPerimeter=0;endArrow=none;startFill=0;" edge="1" parent="1" source="ULvDlD9Oqm8bPdQTXCZo-11" target="ULvDlD9Oqm8bPdQTXCZo-2">
          <mxGeometry relative="1" as="geometry" />
        </mxCell>
        <mxCell id="hN9qFNuNnvtqfqO4b8rA-7" style="edgeStyle=orthogonalEdgeStyle;rounded=0;orthogonalLoop=1;jettySize=auto;html=1;entryX=1;entryY=0.75;entryDx=0;entryDy=0;endArrow=none;startFill=0;" edge="1" parent="1" source="hN9qFNuNnvtqfqO4b8rA-5" target="ULvDlD9Oqm8bPdQTXCZo-1">
          <mxGeometry relative="1" as="geometry" />
        </mxCell>
        <mxCell id="hN9qFNuNnvtqfqO4b8rA-5" value="Costo" style="ellipse;whiteSpace=wrap;html=1;align=center;" vertex="1" parent="1">
          <mxGeometry x="570" y="120" width="100" height="40" as="geometry" />
        </mxCell>
        <mxCell id="hN9qFNuNnvtqfqO4b8rA-8" style="edgeStyle=orthogonalEdgeStyle;rounded=0;orthogonalLoop=1;jettySize=auto;html=1;entryX=1;entryY=1;entryDx=0;entryDy=0;endArrow=none;startFill=0;" edge="1" parent="1" source="hN9qFNuNnvtqfqO4b8rA-6" target="ULvDlD9Oqm8bPdQTXCZo-1">
          <mxGeometry relative="1" as="geometry">
            <Array as="points">
              <mxPoint x="558" y="190" />
              <mxPoint x="558" y="170" />
              <mxPoint x="525" y="170" />
            </Array>
          </mxGeometry>
        </mxCell>
        <mxCell id="hN9qFNuNnvtqfqO4b8rA-6" value="CostoOriginal" style="ellipse;whiteSpace=wrap;html=1;align=center;" vertex="1" parent="1">
          <mxGeometry x="580" y="170" width="100" height="40" as="geometry" />
        </mxCell>
        <mxCell id="hN9qFNuNnvtqfqO4b8rA-11" style="edgeStyle=orthogonalEdgeStyle;rounded=0;orthogonalLoop=1;jettySize=auto;html=1;exitX=0.5;exitY=1;exitDx=0;exitDy=0;entryX=0;entryY=0;entryDx=0;entryDy=0;endArrow=none;startFill=0;" edge="1" parent="1" source="hN9qFNuNnvtqfqO4b8rA-9" target="ULvDlD9Oqm8bPdQTXCZo-1">
          <mxGeometry relative="1" as="geometry">
            <Array as="points">
              <mxPoint x="380" y="50" />
              <mxPoint x="380" y="85" />
              <mxPoint x="425" y="85" />
            </Array>
          </mxGeometry>
        </mxCell>
        <mxCell id="hN9qFNuNnvtqfqO4b8rA-9" value="Estado" style="ellipse;whiteSpace=wrap;html=1;align=center;" vertex="1" parent="1">
          <mxGeometry x="290" y="10" width="100" height="40" as="geometry" />
        </mxCell>
        <mxCell id="hN9qFNuNnvtqfqO4b8rA-14" style="edgeStyle=orthogonalEdgeStyle;rounded=0;orthogonalLoop=1;jettySize=auto;html=1;endArrow=none;startFill=0;" edge="1" parent="1" source="hN9qFNuNnvtqfqO4b8rA-12" target="ULvDlD9Oqm8bPdQTXCZo-3">
          <mxGeometry relative="1" as="geometry">
            <Array as="points">
              <mxPoint x="-10" y="630" />
              <mxPoint x="-10" y="590" />
              <mxPoint x="40" y="590" />
            </Array>
          </mxGeometry>
        </mxCell>
        <mxCell id="hN9qFNuNnvtqfqO4b8rA-12" value="Contraseña" style="ellipse;whiteSpace=wrap;html=1;align=center;" vertex="1" parent="1">
          <mxGeometry x="-120" y="610" width="100" height="40" as="geometry" />
        </mxCell>
      </root>
    </mxGraphModel>
  </diagram>
</mxfile>
